<svg width="15" height="14" viewBox="0 0 15 14" fill="none" xmlns="http://www.w3.org/2000/svg">
<path d="M0 8.6216V5.3784C0 4.79539 0.21534 4.23626 0.598648 3.82401C0.981956 3.41175 1.50183 3.18015 2.04391 3.18015H4.39977L7.20893 0.265468C7.33007 0.137282 7.48382 0.0505936 7.65075 0.0163601C7.81768 -0.0178735 7.9903 0.00188397 8.14679 0.0731353C8.30328 0.144387 8.43663 0.263934 8.52997 0.416668C8.6233 0.569402 8.67245 0.748467 8.67119 0.931233V13.0688C8.67245 13.2515 8.6233 13.4306 8.52997 13.5833C8.43663 13.7361 8.30328 13.8556 8.14679 13.9269C7.9903 13.9981 7.81768 14.0179 7.65075 13.9836C7.48382 13.9494 7.33007 13.8627 7.20893 13.7345L4.39977 10.8198H2.04391C1.7755 10.8198 1.50972 10.763 1.26174 10.6525C1.01376 10.542 0.788443 10.3801 0.598648 10.176C0.21534 9.76374 0 9.20461 0 8.6216ZM10.7963 9.45861C11.3991 8.80418 11.7372 7.92028 11.7372 6.99913C11.7372 6.07797 11.3991 5.19407 10.7963 4.53964C10.7411 4.47626 10.6695 4.43218 10.5907 4.41311C10.512 4.39404 10.4297 4.40086 10.3546 4.43269C10.2795 4.46452 10.215 4.51989 10.1694 4.59161C10.1239 4.66334 10.0995 4.74812 10.0993 4.83495V9.16504C10.0998 9.25173 10.1245 9.33627 10.1701 9.40773C10.2158 9.47918 10.2803 9.53428 10.3553 9.56589C10.4304 9.5975 10.5125 9.60417 10.5911 9.58505C10.6698 9.56593 10.7412 9.52188 10.7963 9.45861ZM11.2464 13.3501C12.3684 12.7844 13.3174 11.8866 13.9822 10.7619C14.6469 9.63709 15 8.3319 15 6.99913C15 5.66635 14.6469 4.36116 13.9822 3.23639C13.3174 2.11162 12.3684 1.21383 11.2464 0.648151C11.0503 0.551292 10.8265 0.542166 10.6242 0.622781C10.4219 0.703396 10.2576 0.867149 10.1676 1.07802C10.0775 1.28888 10.069 1.52959 10.144 1.74718C10.2189 1.96478 10.3712 2.14144 10.5673 2.2383C11.4052 2.66541 12.1132 3.33952 12.6089 4.18229C13.1047 5.02505 13.3679 6.00185 13.3679 6.99913C13.3679 7.9964 13.1047 8.9732 12.6089 9.81596C12.1132 10.6587 11.4052 11.3328 10.5673 11.76C10.3712 11.8568 10.2189 12.0335 10.144 12.2511C10.069 12.4687 10.0775 12.7094 10.1676 12.9202C10.2576 13.1311 10.4219 13.2949 10.6242 13.3755C10.8265 13.4561 11.0503 13.447 11.2464 13.3501Z" fill="#FF2D2D"/>
</svg>
