<svg width="244" height="22" viewBox="0 0 244 22" fill="none" xmlns="http://www.w3.org/2000/svg">
<g clip-path="url(#clip0)">
<path d="M0 21.6641V0.503817H14.8356V5.03817H5.22147V8.73282H13.5095V13.0992H5.22147V17.1298H15.1671V21.6641H0ZM19.394 21.6641V0.503817H24.2011L33.5666 13.5191C33.4837 12.5954 33.4008 11.8397 33.3179 11C33.2351 10.2443 33.2351 9.40458 33.2351 8.48092C33.2351 7.55725 33.2351 6.54962 33.2351 5.37405V0.503817H38.4565V21.6641H33.5666L24.284 8.98473C24.3668 9.9084 24.4497 10.5802 24.5326 11.2519C24.6155 11.8397 24.6155 12.4275 24.6155 13.0153C24.6155 13.6031 24.6155 14.2748 24.6155 14.9466V21.7481H19.394V21.6641ZM53.2092 22C51.0543 22 49.1481 21.4962 47.4905 20.5725C45.8329 19.6489 44.5897 18.3053 43.678 16.7099C42.7663 15.0305 42.269 13.1832 42.269 11C42.269 9.40458 42.5177 7.9771 43.0978 6.63359C43.678 5.29008 44.4239 4.1145 45.4185 3.19084C46.413 2.18321 47.5734 1.42748 48.8995 0.839695C50.3084 0.335878 51.8003 0 53.375 0C54.8668 0 56.2758 0.251908 57.6019 0.839695C59.0109 1.42748 60.1712 2.26718 61.0829 3.35878L57.7677 7.1374C57.1875 6.46565 56.5245 5.96183 55.7785 5.62595C55.1984 5.29008 54.3696 5.03817 53.375 5.03817C52.2976 5.03817 51.3859 5.29008 50.4742 5.79389C49.6454 6.29771 48.9823 6.96946 48.4851 7.89313C47.9878 8.81679 47.7391 9.82443 47.7391 11.084C47.7391 12.8473 48.3193 14.2748 49.3967 15.3664C50.4742 16.458 51.966 16.9618 53.7894 16.9618C54.7011 16.9618 55.5299 16.7939 56.3587 16.374C57.1875 15.9542 57.8505 15.5344 58.3478 14.8626L60.9171 18.9771C60.4198 19.5649 59.7568 20.0687 58.928 20.4885C58.0992 20.9084 57.1875 21.2443 56.1929 21.5802C55.2812 21.8321 54.2038 22 53.2092 22ZM69.7024 21.6641V12.3435L61.4973 0.587786H67.5475L72.4375 7.72519L76.913 0.587786H82.7975L75.1725 12.3435V21.7481H69.7024V21.6641ZM93.572 22C91.4171 22 89.5109 21.4962 87.8532 20.5725C86.1956 19.6489 84.9524 18.3053 84.0408 16.7099C83.1291 15.1145 82.6318 13.1832 82.6318 11C82.6318 9.40458 82.8804 7.9771 83.4606 6.63359C84.0407 5.29008 84.7867 4.1145 85.7812 3.19084C86.7758 2.18321 88.019 1.42748 89.3451 0.923664C90.7541 0.419847 92.2459 0.0839695 93.8206 0.0839695C95.3125 0.0839695 96.7215 0.335878 98.0475 0.923664C99.4565 1.51145 100.617 2.35114 101.529 3.44275L98.2133 7.22137C97.6331 6.54962 96.9701 6.0458 96.2242 5.70992C95.4782 5.29008 94.6494 5.12214 93.6549 5.12214C92.5774 5.12214 91.6657 5.37405 90.7541 5.87786C89.9253 6.38168 89.2622 7.05343 88.7649 7.9771C88.2677 8.90076 88.019 9.9084 88.019 11.1679C88.019 12.9313 88.5992 14.3588 89.6766 15.4504C90.7541 16.542 92.2459 17.0458 94.0693 17.0458C94.981 17.0458 95.8098 16.8779 96.6386 16.458C97.4674 16.0382 98.1304 15.6183 98.6277 14.9466L101.197 19.0611C100.7 19.6489 100.037 20.1527 99.2079 20.5725C98.3791 20.9924 97.4674 21.3282 96.4728 21.6641C95.644 21.8321 94.6494 22 93.572 22ZM104.761 21.6641V0.503817H110.148V16.8779H119.348V21.6641H104.761ZM131.946 22C130.371 22 128.962 21.7481 127.553 21.1603C126.227 20.6565 125.067 19.8168 124.072 18.8931C123.077 17.8855 122.332 16.7099 121.834 15.4504C121.337 14.1069 121.005 12.6794 121.005 11.084C121.005 9.48855 121.254 8.06107 121.834 6.71756C122.332 5.37405 123.16 4.19847 124.072 3.19084C125.067 2.18321 126.227 1.42748 127.553 0.923664C128.879 0.419847 130.371 0.0839695 131.946 0.0839695C133.52 0.0839695 135.012 0.335878 136.338 0.923664C137.664 1.42748 138.825 2.26718 139.819 3.19084C140.814 4.1145 141.56 5.37405 142.057 6.71756C142.554 8.06107 142.886 9.48855 142.886 11.084C142.886 12.6794 142.637 14.1069 142.057 15.4504C141.56 16.7939 140.731 17.9695 139.819 18.8931C138.825 19.9008 137.664 20.6565 136.338 21.1603C135.012 21.6641 133.52 22 131.946 22ZM146.698 21.6641V0.503817H155.815C157.141 0.503817 158.302 0.839695 159.379 1.42748C160.457 2.01527 161.285 2.85496 161.865 3.94656C162.446 4.9542 162.777 6.21374 162.777 7.55725C162.777 8.98473 162.446 10.1603 161.865 11.2519C161.285 12.3435 160.457 13.1832 159.379 13.855C158.302 14.4427 157.141 14.7786 155.815 14.7786H152.086V21.6641H146.698ZM152.003 10.0763H154.986C155.649 10.0763 156.147 9.82443 156.561 9.40458C156.976 8.90076 157.224 8.31298 157.224 7.64122C157.224 6.96947 156.976 6.38168 156.561 5.96183C156.147 5.54198 155.567 5.29008 154.986 5.29008H152.003V10.0763ZM166.673 21.6641V0.503817H181.508V5.03817H171.894V8.73282H180.182V13.0992H171.894V17.1298H181.84V21.6641H166.673ZM186.067 21.6641V0.503817H194.935C197.007 0.503817 198.83 0.923664 200.405 1.84733C201.98 2.77099 203.223 3.94656 204.052 5.54198C204.963 7.1374 205.378 8.98473 205.378 11.084C205.378 13.1832 204.963 15.0305 204.052 16.626C203.14 18.2214 201.98 19.4809 200.405 20.4046C198.83 21.3282 197.007 21.7481 194.935 21.7481H186.067V21.6641ZM194.769 5.29008H191.454V16.9618H194.769C196.344 16.9618 197.587 16.458 198.499 15.3664C199.493 14.2748 199.908 12.8473 199.908 11.1679C199.908 9.48855 199.41 8.06107 198.499 6.96947C197.587 5.79389 196.344 5.29008 194.769 5.29008ZM208.444 21.6641V17.1298H212.008V5.03817H208.444V0.503817H220.959V5.03817H217.395V17.1298H220.959V21.6641H208.444ZM222.948 21.6641L231.236 0.503817H235.712L243.917 21.6641H238.53L237.121 17.8015H229.662L228.253 21.6641H222.948ZM232.065 11.3359L231.154 13.855H235.712L234.717 11.2519C234.469 10.5802 234.303 9.99237 234.054 9.32061C233.806 8.64886 233.64 7.9771 233.391 7.30534C233.226 7.9771 232.977 8.64885 232.728 9.23664C232.562 9.82443 232.314 10.5802 232.065 11.3359Z" fill="black"/>
<path d="M131.946 22C130.371 22 128.962 21.7481 127.553 21.1603C126.227 20.6565 125.067 19.8168 124.072 18.8931C123.077 17.8855 122.332 16.7099 121.834 15.4504C121.337 14.1069 121.005 12.6794 121.005 11.084C121.005 9.48857 121.254 8.06108 121.834 6.71757C122.332 5.37406 123.16 4.19849 124.072 3.19086C125.067 2.18322 126.227 1.4275 127.553 0.923679C128.879 0.419862 130.371 0.0839844 131.946 0.0839844C133.52 0.0839844 135.012 0.335893 136.338 0.923679C137.664 1.4275 138.825 2.26719 139.819 3.19086C140.814 4.11452 141.56 5.37406 142.057 6.71757C142.554 8.06108 142.886 9.48857 142.886 11.084C142.886 12.6794 142.637 14.1069 142.057 15.4504C141.56 16.7939 140.731 17.9695 139.819 18.8931C138.825 19.9008 137.664 20.6565 136.338 21.1603C135.012 21.6641 133.52 22 131.946 22Z" fill="#FF2D2D"/>
</g>
<defs>
<clipPath id="clip0">
<rect width="244" height="22" fill="white"/>
</clipPath>
</defs>
</svg>
